<svg width="31" height="22" viewBox="0 0 31 22" fill="none" xmlns="http://www.w3.org/2000/svg">
<path d="M30.346 3.43469C30.1696 2.77025 29.8242 2.16443 29.3443 1.67788C28.8644 1.19132 28.2668 0.841092 27.6115 0.662245C25.198 2.0071e-07 15.5 0 15.5 0C15.5 0 5.80195 2.0071e-07 3.38851 0.662245C2.73316 0.841092 2.13564 1.19132 1.65574 1.67788C1.17584 2.16443 0.830411 2.77025 0.654012 3.43469C0.203369 5.9302 -0.0153159 8.46307 0.000833009 11C-0.0153159 13.5369 0.203369 16.0698 0.654012 18.5653C0.830411 19.2298 1.17584 19.8356 1.65574 20.3221C2.13564 20.8087 2.73316 21.1589 3.38851 21.3378C5.80195 22 15.5 22 15.5 22C15.5 22 25.198 22 27.6115 21.3378C28.2668 21.1589 28.8644 20.8087 29.3443 20.3221C29.8242 19.8356 30.1696 19.2298 30.346 18.5653C30.7966 16.0698 31.0153 13.5369 30.9992 11C31.0153 8.46307 30.7966 5.9302 30.346 3.43469V3.43469ZM12.4002 15.7143V6.28572L20.4487 11L12.4002 15.7143Z" fill="#FFD233"/>
</svg>
